<?xml version="1.0" encoding="utf-8"?>

<svg version="1.1" id="Layer_1"
     xmlns="http://www.w3.org/2000/svg" x="0px" y="0px" width="800px" height="800px"
     viewBox="0 0 800 800" enable-background="new 0 0 800 800" xml:space="preserve">
<switch>
	<g>
		<g>
			<g>
				<g>
					<path fill-rule="evenodd" clip-rule="evenodd" fill="#f98967" d="M769.742,399.997c0,20.705-42.129,37.48-45.576,57.193
						c-3.551,20.271,30.25,50.395,23.367,69.302c-7.006,19.243-52.326,20.577-62.449,38.071
						c-10.221,17.666,11.209,57.583-1.84,73.116c-13.084,15.575-56.127,1.37-71.695,14.454
						c-15.533,13.042-8.98,57.906-26.639,68.121c-17.494,10.124-53.074-17.909-72.318-10.903
						c-18.914,6.89-28.123,51.29-48.396,54.835c-19.711,3.447-43.492-35.074-64.197-35.074c-20.699,0-44.483,38.521-64.195,35.074
						c-20.275-3.551-29.492-47.952-48.403-54.835c-19.246-7.006-54.82,21.027-72.314,10.903
						c-17.662-10.215-11.104-55.079-26.632-68.121c-15.576-13.084-58.618,1.115-71.696-14.461
						c-13.048-15.526,8.376-55.45-1.843-73.109c-10.121-17.5-55.447-18.828-62.449-38.071c-6.883-18.914,26.918-49.03,23.367-69.302
						c-3.451-19.713-45.576-36.488-45.576-57.193c0-20.698,42.125-37.475,45.576-57.192c3.551-20.266-30.25-50.395-23.367-69.302
						c7.005-19.243,52.329-20.571,62.453-38.072c10.215-17.659-11.206-57.582,1.839-73.103
						c13.085-15.582,56.121-1.376,71.699-14.461c15.527-13.042,8.973-57.905,26.632-68.12
						c17.495-10.124,53.072,17.905,72.318,10.897c18.908-6.883,28.121-51.278,48.396-54.829
						c19.712-3.454,43.496,35.071,64.195,35.071c20.705,0,44.486-38.525,64.197-35.071c20.273,3.551,29.49,47.946,48.396,54.829
						c19.244,7.008,54.824-21.016,72.318-10.895c17.658,10.218,11.105,55.076,26.639,68.117
						c15.574,13.085,58.611-1.121,71.689,14.461c13.047,15.521-8.375,55.451,1.846,73.109
						c10.123,17.495,55.443,18.829,62.449,38.065c6.889,18.914-26.918,49.036-23.367,69.302
						C727.613,362.522,769.742,379.299,769.742,399.997z"/>
				</g>
			</g>
            <g>
				<path fill-rule="evenodd" clip-rule="evenodd" fill="#FFFFFF" d="M711.406,399.997c0,172.047-139.47,311.511-311.51,311.511
					c-172.041,0-311.504-139.464-311.504-311.511c0-172.034,139.463-311.504,311.504-311.504
					C571.937,88.493,711.406,227.963,711.406,399.997z"/>
			</g>
            <g>
				<path fill-rule="evenodd" clip-rule="evenodd" fill="#f98967" d="M700.57,399.997c0,166.065-134.615,300.674-300.674,300.674
					c-166.053,0-300.668-134.608-300.668-300.674c0-166.053,134.615-300.667,300.668-300.667
					C565.955,99.33,700.57,233.944,700.57,399.997z"/>
			</g>
            <g>
				<path fill-rule="evenodd" clip-rule="evenodd" fill="#FFFFFF" d="M685.676,399.997c0,157.842-127.944,285.78-285.779,285.78
					c-157.826,0-285.774-127.938-285.774-285.78c0-157.829,127.948-285.773,285.774-285.773
					C557.731,114.224,685.676,242.168,685.676,399.997z"/>
			</g>
            <g>
				<g>
					<path fill="#f98967" d="M387.686,662L387.686,662L387.686,662c-3.375,0-5.979-3.455-5.814-6.818l0,0
						c0.161-3.375,3.006-6.192,6.38-6.034l0,0c3.372,0.171,5.973,3.338,5.808,6.711l0,0c-0.164,3.254-2.842,6.142-6.098,6.142l0,0
						C387.884,662,387.805,662,387.686,662z M406.17,655.73c-0.164-3.326,2.438-6.449,5.806-6.613l0,0
						c3.338-0.115,6.22,2.782,6.384,6.157l0,0c0.164,3.369-2.437,6.726-5.812,6.726l0,0c-0.085,0-0.207,0-0.28,0l0,0
						C409.016,662,406.335,659.02,406.17,655.73z M362.937,658.811c-3.329-0.487-5.646-3.575-5.159-6.907l0,0
						c0.447-3.332,3.536-5.653,6.868-5.16l0,0c3.329,0.445,5.65,3.527,5.199,6.865l0,0c-0.445,3.046-3.049,5.238-6.049,5.238l0,0
						C363.506,658.847,363.223,658.847,362.937,658.811z M430.384,653.565c-0.487-3.332,1.834-6.42,5.159-6.901l0,0
						c3.375-0.457,6.421,1.827,6.914,5.153l0,0c0.487,3.375-1.833,6.463-5.165,6.908l0,0c-0.28,0.036-0.567,0.085-0.854,0.085l0,0
						C433.436,658.811,430.835,656.611,430.384,653.565z M338.519,654.139L338.519,654.139L338.519,654.139
						c-3.289-0.774-5.284-4.063-4.507-7.358l0,0c0.81-3.247,4.063-5.281,7.352-4.472l0,0c3.25,0.774,5.278,4.063,4.511,7.358l0,0
						c-0.688,2.76-3.17,4.672-5.933,4.672l0,0C339.494,654.339,339.006,654.261,338.519,654.139z M454.359,649.546
						c-0.815-3.296,1.219-6.543,4.472-7.359l0,0c3.289-0.804,6.579,1.225,7.347,4.514l0,0c0.815,3.254-1.219,6.543-4.466,7.354l0,0
						c-0.487,0.085-0.98,0.164-1.419,0.164l0,0C457.527,654.218,455.006,652.341,454.359,649.546z M314.668,647.188
						c-3.21-1.104-4.876-4.594-3.777-7.761l0,0c1.054-3.168,4.55-4.88,7.718-3.776l0,0c3.21,1.09,4.876,4.55,3.779,7.76l0,0
						c-0.855,2.516-3.25,4.1-5.769,4.1l0,0C315.969,647.511,315.316,647.39,314.668,647.188z M477.8,643.247
						c-1.097-3.168,0.572-6.628,3.776-7.725l0,0c3.174-1.139,6.67,0.573,7.767,3.74l0,0c1.097,3.174-0.608,6.664-3.782,7.761l0,0
						l0,0l0,0c-0.646,0.244-1.34,0.366-1.986,0.366l0,0C481.053,647.39,478.695,645.763,477.8,643.247z M291.551,637.96
						c-3.049-1.42-4.432-5.032-3.009-8.084l0,0c1.379-3.045,4.998-4.428,8.086-3.003l0,0c3.046,1.377,4.386,4.995,3.006,8.041l0,0
						c-1.054,2.278-3.25,3.575-5.568,3.575l0,0C293.214,638.489,292.361,638.331,291.551,637.96z M500.558,634.749
						c-1.383-3.045-0.043-6.658,3.009-8.083l0,0c3.082-1.377,6.701-0.036,8.077,3.009l0,0c1.426,3.046,0.049,6.701-3.003,8.084l0,0
						c-0.811,0.365-1.663,0.572-2.516,0.572l0,0C503.811,638.331,501.617,636.991,500.558,634.749z M271,626.55c0,0,0,0,0,0.037l0,0
						c0-1.706-4.72-5.445-3.015-8.333l0,0c1.669-2.924,5.017-3.936,7.944-2.229l0,0c2.924,1.669,3.708,5.402,2.039,8.29l0,0
						c-1.136,1.992-2.486,3.046-4.6,3.046l0,0C272.311,627.36,271,627.11,271,626.55z M522.413,624.114
						c-1.705-2.888-0.688-6.635,2.193-8.334l0,0c2.93-1.669,6.664-0.688,8.333,2.236l0,0c1.705,2.924,0.694,6.621-2.193,8.326l0,0
						c-0.975,0.566-2.034,0.816-3.045,0.816l0,0C525.581,627.159,523.553,626.057,522.413,624.114z M248.521,613.137
						L248.521,613.137L248.521,613.137c-2.762-1.949-3.375-5.763-1.422-8.534l0,0c1.952-2.723,5.729-3.368,8.491-1.419l0,0
						c2.72,1.949,3.372,5.769,1.423,8.491l0,0c-1.179,1.706-3.049,2.559-4.959,2.559l0,0
						C250.836,614.233,249.578,613.874,248.521,613.137z M543.137,611.474c-1.949-2.766-1.34-6.584,1.426-8.527l0,0
						c2.717-1.956,6.542-1.304,8.491,1.419l0,0c1.949,2.76,1.34,6.536-1.426,8.491l0,0c-1.054,0.773-2.314,1.133-3.533,1.133l0,0
						C546.182,613.989,544.318,613.101,543.137,611.474z M228.977,597.78c-2.559-2.235-2.845-6.055-0.648-8.613l0,0
						c2.232-2.564,6.052-2.845,8.616-0.609l0,0c2.558,2.193,2.799,6.055,0.606,8.571l0,0c-1.221,1.383-2.884,2.113-4.593,2.113l0,0
						C231.538,599.242,230.116,598.755,228.977,597.78z M562.563,596.892c-2.193-2.565-1.913-6.421,0.603-8.62l0,0
						c2.559-2.192,6.384-1.949,8.613,0.604l0,0c2.199,2.527,1.913,6.384-0.608,8.619l0,0c-1.17,0.975-2.596,1.468-3.984,1.468l0,0
						C565.486,598.962,563.78,598.268,562.563,596.892z M210.937,580.633c-2.317-2.442-2.235-6.292,0.204-8.613l0,0
						c2.439-2.357,6.296-2.278,8.61,0.165l0,0c2.321,2.436,2.239,6.298-0.201,8.655l0,0c-1.179,1.091-2.68,1.663-4.185,1.663l0,0
						C213.739,582.503,212.155,581.894,210.937,580.633z M580.52,580.511c-2.442-2.32-2.521-6.17-0.207-8.613l0,0
						c2.321-2.437,6.177-2.516,8.613-0.207l0,0c2.443,2.321,2.564,6.184,0.25,8.619l0,0l0,0l0,0
						c-1.219,1.256-2.809,1.907-4.429,1.907l0,0C583.242,582.217,581.738,581.65,580.52,580.511z M194.642,561.865
						c-2.114-2.644-1.666-6.463,1.017-8.577l0,0c2.602-2.07,6.46-1.626,8.531,1.018l0,0c2.114,2.638,1.626,6.457-1.014,8.577l0,0
						c-1.096,0.847-2.437,1.297-3.78,1.297l0,0C197.611,564.18,195.821,563.364,194.642,561.865z M596.894,562.063
						c-2.681-2.109-3.131-5.063-1.054-9.063h0.036c2.071,0,5.183-2.598,7.826-0.525l0,0c2.638,2.07,4.298,6.354,0.298,9.004v0.021
						c0,0,0,0,0,0.036l0,0c0,1.505-2.253,2.073-4.08,2.073l0,0C598.622,563.609,597.984,562.92,596.894,562.063z M180.181,541.63
						L180.181,541.63L180.181,541.63c-1.833-2.809-1.225-6.585,1.577-8.412l0,0C184.6,531.39,190,532.2,190,535.002v0.043
						c4,2.802,1.185,6.585-1.623,8.412l0,0c-1.014,0.646-2.045,0.975-3.181,0.975l0,0
						C183.204,544.432,181.317,543.457,180.181,541.63z M611.439,543.091c-2.844-1.833-3.66-5.604-1.833-8.412l0,0
						c1.833-2.838,5.616-3.784,8.418-1.956l0,0c2.839,1.785,3.655,4.277,1.864,8.277l0,0c0,0,0,0-0.037,0l0,0
						c-1.145,0-3.131,2.93-5.116,2.93l0,0C613.59,543.93,612.457,543.743,611.439,543.091z M167.663,520.133
						c-1.544-3.003-0.362-6.664,2.601-8.205l0,0c3.006-1.584,6.707-0.408,8.248,2.595l0,0c1.547,2.967,0.369,6.67-2.601,8.211l0,0
						c-0.893,0.445-1.87,0.695-2.802,0.695l0,0C170.873,523.429,168.76,522.21,167.663,520.133z M624.116,522.374
						c-3.009-1.553-4.19-5.244-2.644-8.211l0,0c1.547-3.016,5.244-4.185,8.211-2.644l0,0c3.01,1.541,4.191,5.238,2.644,8.205l0,0
						l0,0l0,0c-1.103,2.114-3.216,3.289-5.445,3.289l0,0C625.943,523.014,625.006,522.813,624.116,522.374z M157.305,497.54
						c-1.261-3.131,0.244-6.701,3.372-7.962l0,0c3.128-1.218,6.664,0.286,7.964,3.411l0,0c1.219,3.088-0.286,6.664-3.414,7.925l0,0
						c-0.731,0.286-1.505,0.444-2.278,0.444l0,0C160.555,501.358,158.279,499.897,157.305,497.54z M634.722,500.506
						c-3.132-1.255-4.636-4.794-3.369-7.919l0,0c1.255-3.131,4.788-4.635,7.919-3.411l0,0c3.131,1.255,4.63,4.831,3.375,7.919l0,0
						c-0.938,2.395-3.253,3.862-5.653,3.862l0,0C636.226,500.957,635.488,500.792,634.722,500.506z M149.136,474.058
						L149.136,474.058L149.136,474.058c-0.935-3.254,0.893-6.622,4.103-7.603l0,0c3.25-0.933,6.625,0.896,7.6,4.148l0,0
						c0.935,3.21-0.893,6.621-4.143,7.554l0,0c-0.569,0.164-1.139,0.249-1.708,0.249l0,0
						C152.346,478.406,149.91,476.7,149.136,474.058z M643.213,477.755c-3.21-0.975-5.074-4.35-4.143-7.56l0,0
						c0.969-3.247,4.344-5.117,7.597-4.143l0,0c3.21,0.933,5.08,4.307,4.105,7.56l0,0c-0.768,2.674-3.21,4.386-5.854,4.386l0,0
						C644.352,477.998,643.779,477.919,643.213,477.755z M143.246,449.88c-0.612-3.289,1.544-6.499,4.833-7.151l0,0
						c3.292-0.608,6.503,1.542,7.151,4.837l0,0c0.648,3.289-1.505,6.5-4.833,7.151l0,0c-0.369,0.079-0.774,0.122-1.136,0.122l0,0
						C146.374,454.839,143.812,452.81,143.246,449.88z M649.469,454.267c-3.289-0.609-5.445-3.82-4.837-7.109l0,0
						c0.652-3.326,3.862-5.482,7.157-4.83l0,0c3.29,0.609,5.482,3.819,4.831,7.108l0,0c-0.566,2.924-3.131,4.958-5.97,4.958l0,0
						C650.242,454.394,649.877,454.352,649.469,454.267z M139.709,425.259c-0.326-3.332,2.153-6.299,5.485-6.621l0,0
						c3.332-0.323,6.338,2.113,6.664,5.481l0,0c0.283,3.332-2.153,6.293-5.485,6.622l0,0c-0.204,0.049-0.405,0.049-0.612,0.049l0,0
						C142.676,430.79,140.035,428.426,139.709,425.259z M653.489,430.296c-3.368-0.28-5.812-3.246-5.482-6.615l0,0
						c0.28-3.338,3.289-5.817,6.621-5.494l0,0c3.332,0.329,5.817,3.295,5.488,6.627l0,0c-0.292,3.168-2.924,5.525-6.055,5.525l0,0
						C653.903,430.339,653.696,430.339,653.489,430.296z M138.488,400.437c0-3.333,2.726-6.104,6.098-6.104l0,0
						c3.371,0,6.091,2.729,6.091,6.104l0,0c0,3.368-2.72,6.091-6.052,6.091l0,0C141.254,406.527,138.488,403.805,138.488,400.437z
						 M650,399.985L650,399.985c0-0.122,0-0.244,0-0.366l0,0c0-0.165,0-0.323,0-0.481l0,0c0-3.375,3.088-6.104,6.451-6.104l0,0
						c3.375-0.037,6.549,2.686,6.549,6.055l0,0c0,0.128,0,0.286,0,0.408l0,0c0,0.164,0,0.329,0,0.487l0,0
						c0,3.375-3.125,6.098-6.5,6.098l0,0C653.125,406.083,650,403.36,650,399.985z M145.112,382.234
						c-3.332-0.286-5.808-3.252-5.482-6.627l0,0l0,0l0,0c0.28-3.332,3.29-5.812,6.618-5.488l0,0
						c3.375,0.286,5.811,3.259,5.528,6.627l0,0c-0.326,3.168-2.966,5.525-6.055,5.525l0,0
						C145.521,382.271,145.316,382.271,145.112,382.234z M650,375.485v-0.036c0-3.338,1.075-6.342,4.413-6.628l0,0
						c3.374-0.365,5.812,2.114,6.142,5.446l0,0c0.322,3.375-2.376,6.335-5.708,6.664l0,0c-0.207,0.037,0.501,0.037,0.3,0.037l0,0
						C652.058,380.968,650,378.61,650,375.485z M147.957,358.137c-3.332-0.651-5.485-3.819-4.876-7.151l0,0
						c0.648-3.289,3.819-5.445,7.112-4.83l0,0c3.332,0.603,5.488,3.813,4.876,7.108l0,0c-0.57,2.918-3.131,4.952-6.016,4.952l0,0
						C148.688,358.216,148.323,358.174,147.957,358.137z M644.474,351.997c-0.651-3.29,1.499-6.5,4.837-7.146l0,0
						c3.289-0.652,6.493,1.541,7.145,4.837l0,0c0.652,3.289-1.504,6.493-4.83,7.151l0,0c-0.365,0.079-0.773,0.115-1.139,0.115l0,0
						C647.604,356.955,645.04,354.927,644.474,351.997z M153.038,334.368c-3.25-0.938-5.081-4.307-4.145-7.56l0,0
						c0.935-3.204,4.307-5.08,7.556-4.142l0,0c3.21,0.938,5.083,4.307,4.145,7.56l0,0c-0.773,2.674-3.21,4.386-5.851,4.386l0,0
						C154.174,334.612,153.607,334.533,153.038,334.368z M638.82,329.002c-0.926-3.247,0.896-6.622,4.148-7.597l0,0
						c3.211-0.932,6.579,0.896,7.56,4.106l0,0l0,0l0,0c0.975,3.247-0.896,6.622-4.105,7.596l0,0
						c-0.572,0.164-1.182,0.243-1.748,0.243l0,0C642.037,333.351,639.637,331.646,638.82,329.002z M160.39,311.202
						c-3.128-1.218-4.669-4.788-3.411-7.919l0,0l0,0l0,0c1.219-3.088,4.794-4.629,7.919-3.368l0,0
						c3.131,1.218,4.636,4.751,3.417,7.882l0,0c-0.975,2.388-3.253,3.856-5.689,3.856l0,0
						C161.895,311.653,161.121,311.531,160.39,311.202z M631.023,306.615L631.023,306.615c-1.261-3.131,0.244-6.664,3.375-7.925l0,0
						c3.119-1.255,6.664,0.244,7.925,3.375l0,0l0,0l0,0c1.261,3.088-0.249,6.664-3.374,7.919l0,0
						c-0.737,0.292-1.505,0.45-2.285,0.45l0,0C634.271,310.435,631.962,309.016,631.023,306.615z M169.901,288.859
						c-3.009-1.548-4.145-5.202-2.644-8.206l0,0c1.544-3.009,5.242-4.185,8.248-2.644l0,0c2.967,1.541,4.142,5.245,2.601,8.211l0,0
						c-1.06,2.107-3.21,3.326-5.403,3.326l0,0C171.729,289.547,170.791,289.304,169.901,288.859z M621.07,285h0.037
						c-1.584-4-0.402-6.623,2.564-8.164l0,0c3.003-1.541,6.657-0.391,8.247,2.619l0,0c1.542,2.96,0.359,6.672-2.601,8.213l0,0
						c-0.89,0.494-1.864,0.658-2.803,0.658l0,0C624.317,288.326,622.167,289,621.07,285z M181.521,267.527
						c-2.848-1.828-3.658-5.604-1.831-8.413l0,0c1.831-2.845,5.568-3.654,8.409-1.827l0,0c2.845,1.785,3.661,5.567,1.831,8.412l0,0
						c-1.14,1.791-3.131,2.802-5.12,2.802l0,0C183.671,268.501,182.535,268.179,181.521,267.527z M609.168,264.603
						c-1.828-2.808-1.018-6.578,1.778-8.406l0,0c2.851-1.833,6.585-1.017,8.455,1.779l0,0c1.827,2.808,1.011,6.591-1.827,8.455l0,0
						c-1.012,0.651-2.156,0.98-3.289,0.98l0,0C612.287,267.411,610.301,266.431,609.168,264.603z M195.129,247.376
						c-2.68-2.071-3.128-5.896-1.057-8.534l0,0c2.074-2.644,5.934-3.131,8.574-1.06l0,0c2.644,2.071,3.088,5.933,1.014,8.577l0,0
						c-1.175,1.541-2.963,2.351-4.791,2.351l0,0C197.569,248.71,196.229,248.271,195.129,247.376z M595.346,245.342
						c-2.107-2.644-1.662-7.351,0.981-9.422l0,0c2.638-2.114,6.457,0.08,8.577,0.08l0,0c0,0,0,0-0.049,0l0,0
						c2.113,0,1.669,7.357-0.975,9.471l0,0c-1.097,0.853-2.438,1.748-3.777,1.748l0,0
						C598.313,247.219,596.528,246.883,595.346,245.342z M210.568,228.645c-2.437-2.321-2.559-6.176-0.241-8.613l0,0
						c2.315-2.443,6.173-2.564,8.613-0.244l0,0c2.44,2.315,2.562,6.177,0.244,8.613l0,0c-1.222,1.261-2.845,1.907-4.429,1.907l0,0
						C213.251,230.308,211.75,229.741,210.568,228.645z M579.746,227.512c-2.357-2.443-2.272-6.305,0.158-8.656l0,0
						c2.437-2.327,6.305-2.242,8.613,0.201l0,0c2.363,2.437,2.278,6.256-0.158,8.613l0,0c-1.176,1.139-2.723,1.7-4.222,1.7l0,0
						C582.548,229.37,580.928,228.725,579.746,227.512z M227.676,211.418c-2.196-2.522-1.906-6.384,0.609-8.62l0,0
						c2.562-2.187,6.381-1.906,8.616,0.609l0,0c2.193,2.522,1.91,6.384-0.609,8.619l0,0c-1.142,0.975-2.561,1.505-3.983,1.505l0,0
						C230.6,213.532,228.895,212.795,227.676,211.418z M562.52,211.169c-2.564-2.193-2.802-6.049-0.609-8.607l0,0
						c2.193-2.521,6.013-2.808,8.564-0.609l0,0c2.57,2.187,2.852,6.049,0.658,8.571l0,0c-1.219,1.419-2.924,2.113-4.629,2.113l0,0
						C565.078,212.637,563.701,212.149,562.52,211.169z M246.407,195.892c-1.989-2.717-1.34-6.536,1.383-8.492l0,0
						c2.72-1.986,6.542-1.334,8.491,1.383l0,0c1.989,2.766,1.34,6.548-1.38,8.534l0,0c-1.099,0.773-2.32,1.139-3.539,1.139l0,0
						C249.453,198.456,247.586,197.561,246.407,195.892z M543.867,196.549c-2.759-1.956-3.411-5.732-1.455-8.498l0,0
						c1.942-2.717,5.768-3.375,8.484-1.419l0,0c2.766,1.913,3.418,5.732,1.463,8.492l0,0c-1.176,1.669-3.046,2.564-4.959,2.564l0,0
						C546.146,197.688,544.928,197.317,543.867,196.549z M266.439,182.204c-1.669-2.888-0.691-6.622,2.232-8.333l0,0
						c2.887-1.706,6.625-0.688,8.33,2.199l0,0c1.666,2.918,0.691,6.664-2.193,8.37l0,0c-0.978,0.524-2.031,0.816-3.088,0.816l0,0
						C269.649,185.256,267.575,184.153,266.439,182.204z M523.875,183.788c-2.881-1.663-3.898-5.409-2.229-8.327l0,0
						c1.662-2.93,5.396-3.947,8.326-2.236l0,0c2.924,1.663,3.904,5.403,2.236,8.291l0,0c-1.134,1.986-3.168,3.082-5.281,3.082l0,0
						C525.91,184.598,524.85,184.317,523.875,183.788z M287.731,170.502c-1.383-3.052-0.042-6.664,3.003-8.089l0,0
						c3.049-1.377,6.667-0.073,8.087,3.009l0,0c1.422,3.046,0.082,6.664-3.006,8.083l0,0c-0.813,0.366-1.666,0.53-2.519,0.53l0,0
						C290.981,174.035,288.785,172.738,287.731,170.502z M502.793,172.976c-3.046-1.419-4.429-5.032-3.046-8.077l0,0
						c1.419-3.095,5.038-4.435,8.083-3.052l0,0c3.089,1.425,4.423,5.037,3.046,8.083l0,0c-1.017,2.235-3.253,3.576-5.567,3.576l0,0
						C504.456,173.505,503.604,173.347,502.793,172.976z M310.035,160.866c-1.096-3.167,0.57-6.652,3.737-7.754l0,0
						c3.21-1.103,6.664,0.566,7.8,3.783l0,0c1.1,3.162-0.606,6.615-3.776,7.718l0,0c-0.649,0.238-1.34,0.366-1.992,0.366l0,0
						C313.285,164.978,310.931,163.388,310.035,160.866z M480.767,164.204c-3.168-1.097-4.867-4.557-3.777-7.725l0,0
						c1.097-3.204,4.551-4.909,7.718-3.813l0,0l0,0l0,0c3.217,1.096,4.88,4.544,3.82,7.76l0,0c-0.89,2.522-3.247,4.1-5.77,4.1l0,0
						C482.106,164.526,481.418,164.447,480.767,164.204z M333.155,153.434c-0.773-3.29,1.219-6.579,4.468-7.352l0,0
						c3.29-0.811,6.584,1.175,7.398,4.465l0,0c0.771,3.253-1.221,6.542-4.471,7.358l0,0c-0.487,0.122-0.978,0.164-1.462,0.164l0,0
						C336.323,158.069,333.847,156.2,333.155,153.434z M458.015,157.619L458.015,157.619c-3.289-0.811-5.323-4.063-4.508-7.353l0,0
						c0.768-3.29,4.058-5.318,7.31-4.508l0,0c3.29,0.768,5.324,4.063,4.557,7.31l0,0c-0.694,2.802-3.216,4.715-5.981,4.715l0,0
						C458.953,157.783,458.466,157.698,458.015,157.619z M356.885,148.232c-0.487-3.326,1.83-6.415,5.156-6.908l0,0
						c3.335-0.487,6.423,1.828,6.911,5.166l0,0c0.487,3.332-1.828,6.42-5.156,6.908l0,0c-0.29,0.037-0.573,0.037-0.898,0.037l0,0
						C359.934,153.434,357.329,151.278,356.885,148.232z M434.697,153.196L434.697,153.196c-3.339-0.45-5.653-3.545-5.166-6.871l0,0
						c0.451-3.332,3.533-5.646,6.865-5.202l0,0c3.332,0.481,5.646,3.539,5.202,6.902l0,0c-0.445,3.058-3.046,5.25-6.056,5.25l0,0
						C435.264,153.275,435.014,153.227,434.697,153.196z M381.019,144.751c-0.164-3.369,2.395-5.941,5.769-6.106l0,0
						c3.372-0.158,6.216,2.02,6.38,5.358l0,0c0.162,3.375-2.396,5.997-5.771,5.997l0,0c-0.122,0-0.201,0-0.283,0l0,0
						C383.863,150,381.181,147.999,381.019,144.751z M411.123,150c-3.369,0-5.967-2.483-5.845-5.821l0,0
						c0.161-3.375,3.006-5.716,6.374-5.588l0,0c3.375,0.158,5.977,2.611,5.812,5.985l0,0c-0.158,3.253-2.845,5.424-6.091,5.424l0,0
						C411.287,150,411.208,150,411.123,150z"/>
				</g>
			</g>
            <g>
				<path fill-rule="evenodd" clip-rule="evenodd" fill="#f98967" d="M627.064,399.997c0,125.472-101.703,227.175-227.168,227.175
					c-125.459,0-227.168-101.703-227.168-227.175c0-125.453,101.708-227.168,227.168-227.168
					C525.361,172.829,627.064,274.544,627.064,399.997z"/>
			</g>
            <g>
				<path fill="#FFFFFF" d="M324.105,298.989c0,0.463-5.857,9.752-17.564,27.868c-9.39,14.504-15.875,25.2-19.459,32.084
					c-3.585,6.889-6.28,13.846-8.087,20.863c-1.857-0.414-3.457-0.615-4.797-0.615c-1.495,0-4.282,0.305-8.357,0.926
					c3.509-10.265,14.211-26.206,32.111-47.818c10.989-13.255,18.286-22.721,21.898-28.398
					c-13.413,15.881-26.875,28.971-40.389,39.278c-8.72,6.651-13.956,9.972-15.707,9.972c-0.415,0-0.622-0.152-0.622-0.463
					c0-0.359,0.311-0.67,0.929-0.926c13.103-5.927,32.111-22.733,57.024-50.413l1.005-1.084c0.981-1.03,1.547-1.547,1.703-1.547
					C324.001,298.715,324.105,298.807,324.105,298.989z"/>
                <path fill="#FFFFFF" d="M403.184,318.098c0,11.824-5.905,24.415-17.708,37.785c-14.382,16.258-27.683,24.384-39.898,24.384
					c-6.204,0-11.278-2.205-15.232-6.622c-3.954-4.422-5.93-10.087-5.93-17.013c0-13.87,8.516-27.966,25.548-42.299
					c14.711-12.317,26.455-18.481,35.229-18.481c5.455,0,9.816,2.035,13.085,6.104C401.549,306.024,403.184,311.403,403.184,318.098
					z M397.535,309.588c0-8.43-4.063-12.651-12.187-12.651c-6.661,0-14.351,3.923-23.074,11.756
					c-8.312,7.425-15.436,16.368-21.372,26.833c-6.194,10.983-9.292,20.675-9.292,29.075c0,9.728,4.605,14.589,13.813,14.589
					c11.339,0,22.73-7.925,34.173-23.769c5.412-7.486,9.755-15.405,13.029-23.769C395.896,323.294,397.535,315.936,397.535,309.588z
					"/>
                <path fill="#FFFFFF" d="M478.926,318.098c0,11.824-5.896,24.415-17.703,37.785c-14.381,16.258-27.68,24.384-39.898,24.384
					c-6.201,0-11.281-2.205-15.229-6.622c-3.957-4.422-5.933-10.087-5.933-17.013c0-13.87,8.515-27.966,25.548-42.299
					c14.711-12.317,26.455-18.481,35.232-18.481c5.451,0,9.813,2.035,13.084,6.104C477.293,306.024,478.926,311.403,478.926,318.098
					z M473.285,309.588c0-8.43-4.07-12.651-12.189-12.651c-6.658,0-14.352,3.923-23.074,11.756
					c-8.314,7.425-15.436,16.368-21.375,26.833c-6.189,10.983-9.289,20.675-9.289,29.075c0,9.728,4.604,14.589,13.809,14.589
					c11.342,0,22.732-7.925,34.174-23.769c5.414-7.486,9.758-15.405,13.035-23.769C471.641,323.294,473.285,315.936,473.285,309.588
					z"/>
                <path fill="#FFFFFF" d="M549.689,299.531c0,0.359-0.262,0.822-0.773,1.395c-10.637,11.354-25.865,34.94-45.691,70.752
					c-2.012-0.566-3.973-0.847-5.879-0.847c-0.207,0-1.682,0.128-4.41,0.384c15.898-22.087,32.26-43.353,49.09-63.79l2.248-2.711
					c-3.459,3.563-8.844,7.383-16.172,11.464c-4.594,2.534-8.389,5.963-11.373,10.3c-5.678,8.163-11.221,12.238-16.635,12.238
					c-2.383,0-4.344-0.798-5.873-2.406c-1.529-1.608-2.297-3.68-2.297-6.22c0-4.684,2.82-9.703,8.455-15.064
					c5.629-5.354,10.922-8.029,15.887-8.029c3.838,0,5.762,2.102,5.762,6.305c0,2.681-1.107,5.799-3.326,9.363
					c3.406-4.337,8.078-8.205,14.023-11.61c6.457-3.661,11.568-7.401,15.338-11.214c0.566-0.518,0.951-0.773,1.158-0.773
					C549.482,299.172,549.635,299.324,549.689,299.531z M520.018,312.22c0-2.76-1.096-4.143-3.289-4.143
					c-3.516,0-7.725,3.168-12.633,9.503c-4.916,6.335-7.371,11.72-7.371,16.148c0,2.553,1.121,3.832,3.369,3.832
					c3.654,0,7.887-3.058,12.699-9.186C517.605,322.252,520.018,316.867,520.018,312.22z M551.973,342.007
					c0,5.117-2.551,10.617-7.65,16.508c-5.092,5.891-9.855,8.833-14.291,8.833c-2.381,0-4.336-0.773-5.865-2.333
					c-1.529-1.553-2.297-3.576-2.297-6.061c0-4.739,2.803-9.795,8.412-15.18c5.605-5.379,10.91-8.071,15.924-8.071
					C550.049,335.702,551.973,337.804,551.973,342.007z M549.963,340.85c0-2.711-1.096-4.063-3.289-4.063
					c-3.467,0-7.662,3.156-12.598,9.46c-4.939,6.311-7.406,11.659-7.406,16.033c0,2.656,1.121,3.983,3.361,3.983
					c3.656,0,7.895-3.058,12.707-9.18S549.963,345.552,549.963,340.85z"/>
			</g>
            <g>
				<path fill="#FFFFFF" d="M235.779,470.098c3.131,5.415,6.479,9.356,10.039,11.823c3.618,2.522,7.727,3.966,12.32,4.331v1.462
					c-4.139-0.121-8.625-0.975-13.462-2.559c-4.715-1.486-9.247-3.618-13.596-6.383c-4.2-2.681-7.879-5.568-11.044-8.675
					c-4.38-1.761-7.849-3.63-10.404-5.61c-3.773-2.948-6.67-6.572-8.692-10.861c-2.022-4.288-3.033-9.381-3.033-15.283
					c0-9.223,2.994-16.897,8.988-23.044c5.963-6.115,13.218-9.174,21.768-9.174c8.12,0,15.116,3.07,20.988,9.217
					c2.951,3.106,5.171,6.566,6.664,10.38c1.489,3.819,2.236,8.09,2.236,12.804c0,7.603-2.117,14.248-6.345,19.938
					C248.008,464.183,242.532,468.063,235.779,470.098z M228.113,409.64c-3.134,0-5.927,0.641-8.372,1.913
					c-2.452,1.279-4.521,3.144-6.208,5.592c-1.687,2.449-2.973,5.452-3.856,9.016c-0.883,3.558-1.322,7.62-1.322,12.183
					c0,4.319,0.423,8.272,1.276,11.86c0.853,3.594,2.108,6.688,3.765,9.289c1.657,2.602,3.719,4.624,6.183,6.067
					c2.464,1.443,5.309,2.168,8.534,2.168c3.131,0,5.931-0.633,8.395-1.894s4.556-3.095,6.274-5.501
					c1.721-2.4,3.037-5.342,3.947-8.826c0.914-3.484,1.371-7.432,1.371-11.842c0-4.928-0.479-9.266-1.438-13.006
					c-0.959-3.74-2.321-6.877-4.084-9.398c-1.763-2.528-3.871-4.429-6.32-5.708C233.809,410.28,231.095,409.64,228.113,409.64z"/>
                <path fill="#FFFFFF" d="M306.687,409.226v-1.688h21.905v1.688h-2.327c-2.437,0-4.307,1.023-5.613,3.059
					c-0.639,0.975-0.959,3.167-0.959,6.572v25.097c0,6.177-0.625,10.995-1.87,14.468c-0.792,2.217-1.916,4.111-3.378,5.677
					c-1.459,1.571-3.146,2.851-5.065,3.855c-1.916,1.005-4.023,1.742-6.32,2.218c-2.296,0.469-4.69,0.707-7.185,0.707
					c-6.725,0-11.851-1.176-15.378-3.516c-2.221-1.462-3.932-3.003-5.135-4.629c-1.2-1.633-2.083-3.424-2.647-5.385
					c-0.563-1.962-0.889-4.137-0.98-6.53c-0.091-2.388-0.137-5.099-0.137-8.145v-24.183c0-1.919-0.128-3.484-0.387-4.703
					c-0.259-1.212-0.661-2.156-1.209-2.826s-1.24-1.127-2.078-1.371c-0.837-0.243-1.833-0.365-2.987-0.365h-2.327v-1.688h26.738
					v1.688h-2.373c-1.458,0-2.631,0.207-3.512,0.621c-0.883,0.408-1.553,1.012-2.01,1.798c-0.454,0.792-0.752,1.767-0.889,2.924
					s-0.204,2.461-0.204,3.923v26.967c0,1.522,0.045,3.027,0.137,4.52c0.091,1.492,0.274,2.93,0.548,4.313
					c0.271,1.383,0.646,2.693,1.118,3.924c0.469,1.23,1.087,2.363,1.846,3.398c1.188,1.645,2.777,2.942,4.77,3.904
					c1.992,0.957,4.541,1.432,7.642,1.432c2.01,0,3.932-0.231,5.774-0.707c1.84-0.469,3.527-1.12,5.065-1.961
					c1.535-0.834,2.866-1.821,3.993-2.967c1.124-1.139,1.977-2.394,2.555-3.764c1.185-2.766,1.779-7.438,1.779-14.005v-25.054
					c0-3.893-0.427-6.311-1.279-7.255c-1.185-1.341-2.951-2.011-5.294-2.011H306.687z"/>
                <path fill="#FFFFFF" d="M372.352,448.698h-23.954l-4.2,9.765c-1.032,2.376-1.55,4.167-1.55,5.385
					c0,0.487,0.083,0.938,0.25,1.347c0.168,0.414,0.509,0.791,1.026,1.139c0.518,0.354,1.249,0.64,2.19,0.871
					c0.944,0.226,2.174,0.402,3.697,0.523v1.688h-19.483v-1.688c2.555-0.456,4.228-1.047,5.02-1.778
					c0.789-0.73,1.602-1.833,2.439-3.308c0.837-1.48,1.742-3.338,2.717-5.592l21.765-50.925h1.596l21.54,51.474
					c0.883,2.125,1.696,3.837,2.439,5.135c0.747,1.291,1.514,2.296,2.306,3.009c0.792,0.713,1.651,1.206,2.58,1.48
					c0.926,0.274,2.028,0.444,3.308,0.505v1.688h-24.414v-1.688c1.218-0.061,2.238-0.2,3.058-0.414
					c0.822-0.207,1.468-0.48,1.94-0.816c0.472-0.334,0.804-0.719,1.005-1.145c0.195-0.427,0.295-0.896,0.295-1.413
					c0.031-0.67-0.116-1.529-0.433-2.577c-0.32-1.047-0.786-2.303-1.392-3.764L372.352,448.698z M371.076,445.323l-10.496-25.005
					l-10.77,25.005H371.076z"/>
                <path fill="#FFFFFF" d="M450.654,452.305l1.506,0.316l-5.295,16.794h-47.912v-1.688h2.328c2.586,0,4.455-0.853,5.613-2.558
					c0.639-0.938,0.955-3.192,0.955-6.749v-39.93c0-3.893-0.426-6.311-1.279-7.255c-1.182-1.341-2.947-2.011-5.289-2.011h-2.328
					v-1.688h28.017v1.688c-1.674,0-3.064,0.08-4.172,0.231c-1.109,0.152-2.023,0.378-2.742,0.683
					c-0.713,0.305-1.279,0.664-1.688,1.072c-0.408,0.414-0.748,0.858-1.029,1.346c-0.486,0.944-0.73,3.271-0.73,6.981v38.882
					c0,1.065,0.043,1.973,0.121,2.734c0.074,0.762,0.201,1.395,0.385,1.895s0.426,0.914,0.73,1.23
					c0.305,0.323,0.701,0.572,1.188,0.756c0.732,0.305,3.102,0.456,7.115,0.456h4.52c4.715,0,8.041-0.353,9.99-1.054
					c0.975-0.328,1.889-0.785,2.742-1.364c0.852-0.579,1.68-1.347,2.484-2.309c0.805-0.956,1.596-2.12,2.375-3.49
					C449.035,455.911,449.832,454.254,450.654,452.305z"/>
                <path fill="#FFFFFF" d="M483.006,467.728v1.688h-26.51v-1.688h2.188c2.588,0,4.439-0.742,5.566-2.235
					c0.732-0.944,1.098-3.289,1.098-7.029v-39.972c0-1.462-0.031-2.644-0.092-3.558s-0.176-1.669-0.342-2.26
					c-0.17-0.591-0.414-1.054-0.73-1.396c-0.316-0.328-0.756-0.651-1.303-0.956c-1.34-0.731-2.736-1.097-4.197-1.097h-2.188v-1.688
					h26.51v1.688h-2.242c-2.551,0-4.391,0.75-5.518,2.236c-0.756,0.943-1.139,3.289-1.139,7.029v39.972
					c0,1.462,0.029,2.649,0.09,3.558c0.063,0.914,0.172,1.663,0.342,2.241c0.17,0.573,0.42,1.042,0.756,1.39
					c0.328,0.347,0.773,0.676,1.322,0.98c1.309,0.73,2.691,1.096,4.146,1.096H483.006z"/>
                <path fill="#FFFFFF" d="M539.365,407.538v14.51h-1.055c-0.244-1.942-0.646-3.594-1.213-4.945
					c-0.561-1.359-1.297-2.449-2.211-3.29c-0.908-0.834-2.021-1.443-3.332-1.821c-1.303-0.384-2.826-0.572-4.557-0.572h-8.723
					v47.275c0,3.801,0.414,6.171,1.23,7.115c1.133,1.279,2.912,1.918,5.342,1.918h2.15v1.688h-26.242v-1.688h2.193
					c2.613,0,4.471-0.791,5.568-2.375c0.664-0.938,0.998-3.162,0.998-6.658v-47.275h-7.438c-1.881,0-3.527,0.134-4.928,0.408
					c-1.4,0.273-2.582,0.792-3.557,1.553c-0.975,0.762-1.768,1.84-2.377,3.241c-0.607,1.401-1.059,3.21-1.363,5.427h-1.736v-14.51
					H539.365z"/>
                <path fill="#FFFFFF" d="M586.908,407.538h21.582v1.688h-1.182c-0.365,0-0.865,0.092-1.486,0.274s-1.285,0.444-1.986,0.78
					c-0.693,0.334-1.412,0.761-2.145,1.272c-0.73,0.518-1.4,1.097-2.01,1.736c-0.633,0.67-1.328,1.535-2.07,2.601
					c-0.744,1.066-1.59,2.327-2.535,3.789l-14.924,23.501v15.515c0,3.801,0.426,6.171,1.279,7.115
					c1.127,1.279,2.949,1.918,5.477,1.918h2.01v1.688h-26.285v-1.688h2.193c2.613,0,4.471-0.791,5.568-2.375
					c0.67-0.938,0.998-3.162,0.998-6.658v-14.649l-16.971-25.919c-1.004-1.554-1.852-2.79-2.533-3.717
					c-0.682-0.932-1.207-1.59-1.572-1.985c-0.182-0.183-0.486-0.45-0.914-0.798c-0.426-0.354-0.961-0.707-1.596-1.072
					c-0.645-0.365-1.352-0.676-2.125-0.938c-0.773-0.256-1.59-0.391-2.443-0.391v-1.688h26.467v1.688h-1.369
					c-0.67,0-1.342,0.08-2.029,0.231c-0.688,0.152-1.297,0.396-1.846,0.731s-0.998,0.749-1.352,1.255
					c-0.348,0.499-0.525,1.103-0.525,1.803c0,1.091,0.934,3.07,2.791,5.927l12.914,19.943l12.133-19.072
					c1.828-2.862,2.742-4.988,2.742-6.39c-0.061-0.64-0.201-1.23-0.414-1.778c-0.213-0.549-0.549-1.018-1.006-1.414
					c-0.457-0.396-1.078-0.7-1.869-0.913c-0.793-0.214-1.779-0.323-2.967-0.323V407.538z"/>
			</g>
		</g>
	</g>
</switch>
</svg>
