<?xml version="1.0" encoding="UTF-8" standalone="no"?>
<svg id="svg4156" xmlns="http://www.w3.org/2000/svg"
     height="120" viewBox="0 0 150 300" width="120" version="1.1">
    <path id="path4168"
          d="m37.97 278.8c-15.97-2.5-29.33-16.4-33.66-35-1.366-5.8-1.268-16.5 0.335-36.6 1.101-13.8 0.186-25.3-2.647-33.3-4.641-12.99 2.085-8.227 8.658 6.128 3.344 7.304 4.301 10.13 11.38 33.62 3.929 13.04 6.764 19.99 10.05 24.62 0.6217 0.8776 0.8498 1.876 0.5069 2.219-1.125 1.125-6.001-3.682-11.48-11.31l-5.38-7.5 0.6005 8.399c4.526 63.3 77.98 38.12 86.84-29.76 1.498-11.49 0.894-156.4-0.66-158.3-0.9574-1.166-2.56-6.148-3.74-11.62-2.43-11.19 0.36-26.21 5.32-28.76 14-7.141 23.3 15.1 14.3 33.98l-2.478 5.156 0.4136 53.44c0.7004 90.48 0.5273 105.8-1.303 115-8.753 44.36-42.58 74.88-77.03 69.5zm19.8-6.301c18.59-6.631 32.24-18.9 39.55-35.53 2.711-6.167 0.9805-4.701-3.649 3.092-6.958 11.71-15.58 19.73-28.67 26.68-9.615 5.102-15.11 6.08-26.1 4.644-5.091-0.6651-5.275 0.3048-0.2819 1.487 5.105 1.209 15.27 1.012 19.15-0.3715zm-40.27-15.9c-2.875-4.906-5.996-19.98-6.831-33-0.7814-12.18-1.788-9.253-1.679 4.887 0.094 12.17 2.512 21.32 7.557 28.6 3.313 4.78 3.873 4.493 0.9531-0.4894zm92.7-145.5c-0.4036-58.51-0.678-65.16-2.689-65.16-0.6654 0-0.7812 10.59-0.3663 33.52 0.3336 18.43 0.9159 52.29 1.294 75.23 0.5868 35.62 0.796 39.87 1.432 29.06 0.4093-6.961 0.558-39.66 0.3304-72.66zm-3.993-82.73c1.384-3.996 2.512-7.793 2.506-8.438-0.0174-1.861-1.7-1.359-2.355 0.7031-0.4169 1.313-1.418 1.875-3.344 1.875-3.156 0-3.342 0.8961-1.734 8.391 1.356 6.324 1.968 6.01 4.927-2.532zm8.6-16.18c0.00066-2.123 0.4142-3.199 1.172-3.047 2.215 0.4434 1.166-2.415-1.802-4.913-2.533-2.132-8.874-2.844-9.76-1.097-0.0421 0.08292-0.7804 1.194-1.641 2.469-0.8603 1.275-1.551 2.962-1.536 3.75 0.023 1.155 0.2133 1.115 0.9841-0.2086 2.024-3.475 8.362 0.5921 8.362 5.366 0 1.083 0.6464 1.469 2.109 1.262 1.728-0.2455 2.11-0.8922 2.11-3.581z"/>
</svg>
